<?xml version="1.0" encoding="UTF-8"?> <svg xmlns="http://www.w3.org/2000/svg" id="Layer_1" data-name="Layer 1" viewBox="0 0 986 92"><defs><style>.cls-1{fill:#01acfb;}</style></defs><path class="cls-1" d="M55.55,77.61l1.4,10c-6.62,3.21-17.84,4.24-25.74,4.24C8.54,91.87,0,82.62,0,58.72,0,33.79,9.05,25.57,30.19,25.57c20.26,0,28.42,7.58,28.42,21.84,0,11.31-5.1,18-16.69,18H16.44c1.27,11.44,6,13.75,16.69,13.75a212,212,0,0,0,22.42-1.54M16.05,54.48H37.59c5,0,5.6-4,5.6-7.32,0-6.69-2.8-9.25-12.36-9.25-10.83,0-14.27,3.33-14.78,16.57"></path><path class="cls-1" d="M142.56,46c0,34.69-9.56,45.49-35.93,45.49-12.74,0-23.19-.52-32.87-1.16V1.67C83.44,1,93.76.52,106.63.52,133,.52,142.56,11.31,142.56,46m-16.82,0c0-24.41-4.59-32.12-19.11-32.12-6.5,0-11.85.13-16.94.13V77.74c5,.13,10.57.25,16.94.25,14.52,0,19.11-7.58,19.11-32"></path><path class="cls-1" d="M198.73,40.22h-4.46c-6,0-11.72,2.05-20.63,5.52V90.33H158.09v-63H170.2l1.4,9.25c8.53-7.07,17.58-11,25.73-11h3.06Z"></path><path class="cls-1" d="M262.43,77.61l1.4,10c-6.62,3.21-17.83,4.24-25.74,4.24-22.67,0-31.21-9.25-31.21-33.15,0-24.93,9.05-33.15,30.2-33.15,20.25,0,28.41,7.58,28.41,21.84,0,11.31-5.1,18-16.69,18H223.32c1.27,11.44,6,13.75,16.68,13.75a211.83,211.83,0,0,0,22.43-1.54m-39.5-23.13h21.54c5,0,5.6-4,5.6-7.32,0-6.69-2.8-9.25-12.36-9.25-10.83,0-14.27,3.33-14.78,16.57"></path><path class="cls-1" d="M333.77,47.54V90.33H321.54l-1.66-9.51c-4.46,4.88-12.61,10.92-23.82,10.92-11.47,0-19.75-6.42-19.75-18.24V67.07c0-10,6.75-15.8,18.47-15.8h23.44V47.41c-.12-7.19-2.54-9-11.46-9-5.73,0-16.31.51-26.12,1.29l-1.53-11.06a205.25,205.25,0,0,1,31.22-3.08c15.41,0,23.44,5.14,23.44,22m-42,23.9c0,5.4,2.55,7.71,8.16,7.71,4.84,0,11.85-2.05,18.34-7.45V61.93H298.35c-5.1.26-6.63,2.83-6.63,7.07Z"></path><path class="cls-1" d="M445.11,43V90.33H430V47.8c-.13-6.43-1.91-9-7.77-9-5.22,0-8.67,1.93-16.82,7.59V90.33h-14.9V47.8c.12-6.81-2.43-9-7.78-9-4.84,0-8.28,1.8-16.69,7.46V90.33H350.58v-63h12.61l1,9.25c8-7.19,15.67-11,24.34-11,8.4,0,13.75,3.6,15.92,10.54,7.77-7.07,15.41-10.54,23.7-10.54,11.08,0,16.94,6.17,16.94,17.47"></path><path class="cls-1" d="M512,27.88l-1.15,10.8c-7.9-.26-15.93-.52-23.82-.52-10.45,0-13.25.13-13.25,5.4,0,5,2.67,5.14,8.53,6.81L499.12,55C509.44,58,514,62.06,514,73.11c0,15.42-8.41,18.63-27.91,18.63a161.68,161.68,0,0,1-26.11-2l1-10.92c5,.38,13.25.51,21.27.51,13.25,0,16.82-1,16.82-6,0-4.75-3.31-5.14-9.17-6.81l-16.44-4.5c-11.08-3.21-14.65-8.48-14.65-18.5,0-13.88,7.13-17.86,25.48-17.86A210.46,210.46,0,0,1,512,27.88"></path><path class="cls-1" d="M626.51,46c0,35.21-9.43,46-36.31,46S554,81.21,554,46,563.45,0,590.2,0s36.31,10.79,36.31,46m-55.67,0c0,24.67,4.58,32.25,19.36,32.25S609.69,70.67,609.69,46s-4.58-32.25-19.49-32.25S570.84,21.33,570.84,46"></path><path class="cls-1" d="M711.86,46c0,34.69-9.55,45.49-35.93,45.49-12.74,0-23.18-.52-32.87-1.16V1.67c9.69-.64,20-1.15,32.87-1.15,26.38,0,35.93,10.79,35.93,45.48M695,46c0-24.41-4.58-32.12-19.11-32.12-6.49,0-11.84.13-16.94.13V77.74c5,.13,10.57.25,16.94.25C690.46,78,695,70.41,695,46"></path><rect class="cls-1" x="728.54" y="1.67" width="15.93" height="88.66"></rect><path class="cls-1" d="M827.66,90.33H815.81l-1.4-8.74A37.39,37.39,0,0,1,788.67,92c-19.49,0-27.52-14.39-27.52-46.38C761.15,10.15,771.22,0,799.63,0c8.79,0,17.45.77,25.23,3l-1.28,12c-8.28-.52-17.2-.78-23.19-.78-16.69,0-22.55,3.47-22.55,32.38,0,23.77,3.95,31.61,15.8,31.61,7.39,0,13.12-2.82,18.47-6.16V39.19h15.55Z"></path><path class="cls-1" d="M901.8,89.56c-11.6,1-25.87,1-38.73,1-11.6,0-18.73-6.43-18.86-16.84V18.24c.13-10.4,7.39-16.83,18.86-16.83,12.86,0,27.13,0,38.73,1L901,14.78h-34.4c-4.58,0-6.37,1.92-6.37,7.45V37.78h36.06V50.11H860.26V69.9c0,5.53,1.79,7.45,6.37,7.45H901Z"></path><path class="cls-1" d="M986,46c0,35.21-9.43,46-36.31,46s-36.18-10.79-36.18-46,9.43-46,36.18-46S986,10.79,986,46m-55.67,0c0,24.67,4.58,32.25,19.36,32.25s19.5-7.58,19.5-32.25-4.59-32.25-19.5-32.25S930.33,21.33,930.33,46"></path></svg> 